<svg width="24" height="25" viewBox="0 0 24 25" fill="none" xmlns="http://www.w3.org/2000/svg">
    <path fill-rule="evenodd" clip-rule="evenodd"
        d="M4.31546 4.25C3.93691 2.3 5.4511 0.5 7.41956 0.5C9.16088 0.5 10.5994 1.925 10.5994 3.65V7.55C11.0536 7.55 11.5079 7.475 11.9621 7.475C12.4164 7.475 12.795 7.475 13.2492 7.55V3.65C13.2492 1.925 14.6877 0.5 16.429 0.5C18.3975 0.5 19.9117 2.3 19.6088 4.25L18.776 8.825C21.7287 10.1 24 12.35 24 15.125V16.85C24 19.175 22.4858 21.125 20.2902 22.4C18.0946 23.75 15.2177 24.5 11.9621 24.5C8.70662 24.5 5.82965 23.75 3.63407 22.4C1.5142 21.125 0 19.175 0 16.85V15.125C0 12.35 2.19558 10.1 5.14826 8.825L4.31546 4.25ZM17.6405 9.42508L18.6248 4.02508C18.8519 2.67508 17.8677 1.40008 16.4292 1.40008C15.2178 1.40008 14.2336 2.37508 14.2336 3.57508V8.52508C13.9307 8.45008 13.5522 8.45008 13.2494 8.45008C12.7951 8.45008 12.4166 8.37508 11.9623 8.37508C11.508 8.37508 11.0538 8.37508 10.5995 8.45008C10.2967 8.45008 9.91813 8.52508 9.61529 8.52508V3.65008C9.61529 2.45008 8.63106 1.47508 7.41971 1.47508C6.05693 1.47508 4.99699 2.75008 5.29983 4.10008L6.28406 9.50008C3.10425 10.7001 0.984375 12.8001 0.984375 15.2001V16.9251C0.984375 20.6001 5.90551 23.6001 11.9623 23.6001C18.0191 23.6001 22.9402 20.6001 22.9402 16.9251V15.2001C23.0159 12.7251 20.896 10.6251 17.6405 9.42508Z"
        fill="#633001" />
    <path
        d="M23.0006 16.8294C23.0006 20.5509 18.0521 23.5888 11.9617 23.5888C5.87131 23.5888 0.922852 20.5509 0.922852 16.8294V15.0825H23.0767V16.8294H23.0006Z"
        fill="#FEDC90" />
    <path fill-rule="evenodd" clip-rule="evenodd"
        d="M5.20084 4.03076C4.89527 2.68377 5.96476 1.41162 7.33983 1.41162C8.56211 1.41162 9.55521 2.38444 9.55521 3.58176V8.5207C10.3191 8.44587 11.0831 8.37104 11.9234 8.37104C12.6873 8.37104 13.4512 8.44587 14.2152 8.5207V3.58176C14.2152 2.38444 15.2083 1.41162 16.4305 1.41162C17.8056 1.41162 18.8751 2.68377 18.6459 4.03076L17.6528 9.41869C20.8613 10.616 23.0767 12.7113 23.0767 15.106C23.0767 18.7728 18.1112 21.7661 11.9998 21.7661C5.88837 21.7661 0.922852 18.7728 0.922852 15.106C0.922852 12.7113 3.06184 10.616 6.27033 9.41869L5.20084 4.03076Z"
        fill="#D1884F" />
    <path
        d="M8.92296 14.7788C8.92296 15.7662 8.3845 16.6016 7.69219 16.6016C6.99989 16.6016 6.46143 15.7662 6.46143 14.7788C6.46143 13.7915 6.99989 12.9561 7.69219 12.9561C8.3845 12.9561 8.92296 13.7915 8.92296 14.7788Z"
        fill="#633001" />
    <path
        d="M17.5387 14.7788C17.5387 15.7662 17.0002 16.6016 16.3079 16.6016C15.6156 16.6016 15.0771 15.7662 15.0771 14.7788C15.0771 13.7915 15.6156 12.9561 16.3079 12.9561C17.0002 12.9561 17.5387 13.7915 17.5387 14.7788Z"
        fill="#633001" />
</svg>
    