<svg width="80" height="81" viewBox="0 0 80 81" fill="none" xmlns="http://www.w3.org/2000/svg">
    <path
        d="M40 80.6191C62.0914 80.6191 80 62.7105 80 40.6191C80 18.5278 62.0914 0.619141 40 0.619141C17.9086 0.619141 0 18.5278 0 40.6191C0 62.7105 17.9086 80.6191 40 80.6191Z"
        fill="url(#paint0_linear_104_162)" />
    <path
        d="M14.0266 41.9416C18.725 39.3741 23.9696 37.2311 28.87 35.0773C37.3004 31.5494 45.7644 28.0826 54.3137 24.8551C55.9771 24.3052 58.9659 23.7675 59.2589 26.213C59.0984 29.6748 58.4383 33.1163 57.9855 36.5578C56.8363 44.126 55.5079 51.6682 54.2125 59.2114C53.7662 61.7241 50.5937 63.0248 48.5637 61.4168C43.6851 58.1476 38.769 54.91 33.9528 51.5648C32.3751 49.9744 33.8381 47.6904 35.2471 46.5546C39.2652 42.626 43.5265 39.2882 47.3346 35.1565C48.3619 32.6956 45.3267 34.7696 44.3256 35.4051C38.8247 39.1659 33.4585 43.1564 27.6589 46.4616C24.6965 48.0795 21.2437 46.6969 18.2826 45.7941C15.6277 44.7036 11.7372 43.6048 14.0264 41.9419L14.0266 41.9416Z"
        fill="#ADD8EB" />
    <defs>
        <linearGradient id="paint0_linear_104_162" x1="28.7886" y1="-36.415" x2="-25.8836"
            y2="51.9794" gradientUnits="userSpaceOnUse">
            <stop stop-color="#34B0DF" />
            <stop offset="1" stop-color="#1E88D3" />
        </linearGradient>
    </defs>
</svg>
    