<svg width="24" height="25" viewBox="0 0 24 25" fill="none" xmlns="http://www.w3.org/2000/svg">
    <path
        d="M9.4091 5.95815C9.10972 5.92102 9.09546 5.90864 9.23802 5.89626C9.50889 5.85913 10.1362 5.90864 10.5781 5.99528C11.6045 6.2057 12.5312 6.75031 13.5149 7.70338L13.7715 7.96331L14.1421 7.9138C15.7245 7.691 17.3497 7.86429 18.7041 8.4089C19.0747 8.55743 19.6592 8.85449 19.7305 8.92875C19.759 8.95351 19.8018 9.11441 19.8303 9.27532C19.9301 9.85706 19.8873 10.2903 19.6735 10.6245C19.5594 10.8101 19.5594 10.8596 19.6307 11.0206C19.6877 11.1443 19.8588 11.231 20.0156 11.231C20.3578 11.231 20.7142 10.7606 20.8853 10.1046L20.9565 9.84469L21.0848 9.96846C21.8119 10.674 22.3822 11.6518 22.4677 12.3449L22.4962 12.5306L22.3679 12.3697C22.1541 12.085 21.9545 11.8994 21.6836 11.7384C21.1989 11.4538 20.6857 11.3671 19.3313 11.3052C18.1053 11.2433 17.4068 11.1567 16.7225 10.9587C15.5535 10.6245 14.9547 10.1913 13.5719 8.59456C12.9589 7.88904 12.574 7.50534 12.189 7.18352C11.3479 6.47801 10.5068 6.10668 9.4091 5.95815Z"
        fill="#FF007A" />
    <path
        d="M20.0309 7.53074C20.0594 7.0604 20.1307 6.75096 20.2875 6.46628C20.3445 6.35488 20.4015 6.25586 20.4158 6.25586C20.43 6.25586 20.4015 6.3425 20.3588 6.44152C20.2447 6.71383 20.2305 7.09753 20.3017 7.53074C20.4015 8.08773 20.4443 8.162 21.1286 8.76849C21.4422 9.05318 21.8129 9.41212 21.9554 9.56065L22.1978 9.83296L21.9554 9.63492C21.6561 9.38737 20.9718 8.91702 20.815 8.85514C20.7152 8.80563 20.7009 8.80563 20.6296 8.86751C20.5726 8.91702 20.5583 8.99129 20.5583 9.35024C20.5441 9.90722 20.4586 10.2538 20.2447 10.6127C20.1307 10.7984 20.1164 10.7613 20.2162 10.5509C20.2875 10.3899 20.3017 10.3157 20.3017 9.78345C20.3017 8.70661 20.1592 8.44668 19.2896 8.01347C19.0757 7.90207 18.7051 7.74116 18.4912 7.65452C18.2631 7.56788 18.092 7.49361 18.1063 7.49361C18.1348 7.46886 18.9759 7.67927 19.3038 7.80305C19.8028 7.97633 19.8883 7.98871 19.9453 7.97633C19.9881 7.9392 20.0166 7.84018 20.0309 7.53074Z"
        fill="#FF007A" />
    <path
        d="M9.99398 9.37471C9.39523 8.65681 9.01031 7.54283 9.09585 6.71354L9.12436 6.45361L9.26692 6.47837C9.52353 6.5155 9.96547 6.66403 10.1793 6.77543C10.7496 7.07249 11.0062 7.48095 11.2485 8.4959C11.3198 8.79296 11.4196 9.13953 11.4624 9.25093C11.5336 9.43659 11.8045 9.86981 12.0326 10.1421C12.1894 10.3402 12.0896 10.4392 11.7332 10.4144C11.1915 10.3649 10.4644 9.93169 9.99398 9.37471Z"
        fill="#FF007A" />
    <path
        d="M19.3031 14.7586C16.4803 13.7684 15.4824 12.9144 15.4824 11.4662C15.4824 11.2558 15.4967 11.0825 15.4967 11.0825C15.5109 11.0825 15.6107 11.1568 15.739 11.2434C16.3093 11.6395 16.9508 11.8128 18.7328 12.0356C19.7735 12.1717 20.3723 12.2708 20.914 12.4317C22.639 12.9268 23.7082 13.9417 23.9648 15.3156C24.0361 15.7117 23.9933 16.4667 23.8793 16.8628C23.7795 17.1723 23.4944 17.7416 23.4231 17.754C23.4088 17.754 23.3803 17.6921 23.3803 17.5931C23.3518 17.0732 23.0524 16.5781 22.5534 16.1944C21.9547 15.7488 21.1849 15.4146 19.3031 14.7586Z"
        fill="#FF007A" />
    <path
        d="M17.3082 15.1674C17.2797 14.9818 17.2084 14.7466 17.1656 14.6476L17.0944 14.4619L17.2227 14.5981C17.408 14.7837 17.5506 15.0065 17.6789 15.316C17.7787 15.5511 17.7787 15.6254 17.7787 16.0091C17.7787 16.3804 17.7644 16.4671 17.6789 16.6775C17.5363 17.0117 17.3652 17.2469 17.0801 17.5068C16.5669 17.9647 15.8968 18.2123 14.9417 18.3237C14.7706 18.3361 14.2859 18.3732 13.8582 18.398C12.789 18.4475 12.0762 18.5465 11.4347 18.7445C11.3492 18.7693 11.2636 18.794 11.2494 18.7817C11.2208 18.7569 11.6628 18.5341 12.0192 18.3856C12.5182 18.1752 13.0314 18.0638 14.1576 17.8905C14.7136 17.8162 15.2838 17.7172 15.4264 17.6677C16.8378 17.284 17.5363 16.3309 17.3082 15.1674Z"
        fill="#FF007A" />
    <path
        d="M18.6046 17.1602C18.2339 16.4547 18.1484 15.7863 18.3479 15.155C18.3765 15.0931 18.405 15.0312 18.4335 15.0312C18.462 15.0312 18.5475 15.0684 18.6331 15.1179C18.8041 15.2169 19.1605 15.3902 20.0729 15.8234C21.2277 16.368 21.8835 16.7889 22.3397 17.2716C22.7388 17.6924 22.9812 18.1751 23.0952 18.7693C23.1665 19.1034 23.1237 19.908 23.0239 20.2422C22.7103 21.2943 21.9975 22.1359 20.9568 22.6187C20.8 22.6929 20.6717 22.7424 20.6574 22.7424C20.6432 22.7424 20.7002 22.6187 20.7857 22.4701C21.1279 21.8389 21.1707 21.2324 20.914 20.5516C20.7572 20.1308 20.4293 19.6233 19.7736 18.7693C18.9895 17.7791 18.8041 17.5191 18.6046 17.1602Z"
        fill="#FF007A" />
    <path
        d="M7.98395 20.9477C9.0389 20.1803 10.3362 19.6357 11.5337 19.4624C12.0469 19.3881 12.9023 19.4129 13.3728 19.5243C14.1283 19.6975 14.8126 20.0689 15.169 20.5268C15.5112 20.9724 15.668 21.3561 15.8248 22.2102C15.8818 22.5444 15.9531 22.8909 15.9674 22.9652C16.0814 23.4108 16.3095 23.7574 16.5946 23.943C17.0366 24.2277 17.8064 24.2401 18.562 23.9925C18.6903 23.9554 18.8043 23.9183 18.8043 23.9307C18.8328 23.9554 18.4479 24.1782 18.1913 24.2896C17.8349 24.4505 17.5498 24.5 17.1649 24.5C16.4806 24.5 15.8961 24.1906 15.4256 23.5717C15.3258 23.4479 15.1263 23.089 14.9552 22.7548C14.4562 21.7522 14.1996 21.4552 13.6151 21.121C13.1019 20.8363 12.4461 20.7744 11.9471 20.9848C11.2914 21.2571 11.1203 21.9874 11.5765 22.433C11.7618 22.6186 12.104 22.7672 12.3891 22.8043C12.9166 22.8662 13.3728 22.5072 13.3728 22.0493C13.3728 21.7522 13.2445 21.5789 12.9023 21.4428C12.4461 21.2695 11.9471 21.4675 11.9614 21.8512C11.9614 22.0121 12.0469 22.1112 12.2323 22.1854C12.3463 22.2349 12.3463 22.2349 12.2608 22.2226C11.8474 22.1483 11.7476 21.7027 12.0755 21.418C12.4746 21.0714 13.3157 21.22 13.6009 21.7027C13.7149 21.9007 13.7292 22.2968 13.6294 22.5444C13.387 23.089 12.7027 23.3737 12.0042 23.2128C11.5337 23.1014 11.3341 22.99 10.7639 22.4825C9.76596 21.5913 9.38105 21.418 7.95544 21.2324L7.68457 21.1952L7.98395 20.9477Z"
        fill="#FF007A" />
    <path fill-rule="evenodd" clip-rule="evenodd"
        d="M0.485342 1.03223C3.80701 4.53507 8.92496 9.98117 9.18157 10.2782C9.39541 10.5258 9.30987 10.761 8.95347 10.9342C8.75388 11.0333 8.34045 11.1323 8.14087 11.1323C7.91277 11.1323 7.64191 11.0333 7.45658 10.8724C7.32827 10.761 6.77228 10.0554 5.51775 8.35972C4.56259 7.06008 3.74999 5.98324 3.73573 5.97086C3.67871 5.9461 3.67871 5.9461 5.41795 8.6444C6.51567 10.3401 6.87208 10.9466 6.87208 11.0209C6.87208 11.1818 6.81505 11.2684 6.58695 11.4912C6.20204 11.8626 6.03097 12.2834 5.90266 13.1622C5.7601 14.14 5.37519 14.8332 4.27747 16.009C3.63594 16.7022 3.53615 16.8259 3.37933 17.1106C3.17974 17.4572 3.12272 17.6552 3.09421 18.1008C3.0657 18.5712 3.12272 18.8682 3.27954 19.3138C3.4221 19.7099 3.57892 19.9698 3.96383 20.4773C4.29172 20.9229 4.49131 21.2571 4.49131 21.3809C4.49131 21.4799 4.51982 21.4799 5.03304 21.3809C6.25906 21.1333 7.27125 20.7125 7.82723 20.1926C8.16938 19.8708 8.25492 19.6975 8.25492 19.2519C8.25492 18.9672 8.24066 18.9054 8.15513 18.7321C8.01256 18.4598 7.7417 18.237 7.1572 17.8904C6.38737 17.4324 6.05948 17.0611 5.97394 16.566C5.90266 16.1452 5.9882 15.8605 6.41588 15.0807C6.85782 14.2762 6.97187 13.942 7.04315 13.1251C7.08592 12.6052 7.1572 12.3948 7.32827 12.2339C7.5136 12.0606 7.67042 11.9987 8.11236 11.9492C8.83942 11.8626 9.30987 11.7016 9.68053 11.3922C10.0084 11.1323 10.151 10.8724 10.1652 10.4886L10.1795 10.204L9.99416 10.0307C9.32413 9.3623 0.0434024 0.5 0.000634118 0.5C-0.013622 0.5 0.214476 0.735173 0.485342 1.03223ZM4.86206 18.6332C5.01888 18.398 4.93334 18.1009 4.67673 17.9524C4.43438 17.8163 4.06372 17.8781 4.06372 18.0638C4.06372 18.1133 4.09223 18.1628 4.17777 18.1876C4.30607 18.2495 4.32033 18.3114 4.22054 18.4475C4.12075 18.5837 4.12075 18.7074 4.24905 18.7941C4.44864 18.9302 4.7195 18.856 4.86206 18.6332Z"
        fill="#FF007A" />
    <path fill-rule="evenodd" clip-rule="evenodd"
        d="M10.6358 12.1225C10.2937 12.2092 9.96577 12.531 9.86598 12.8528C9.80895 13.0509 9.83747 13.4098 9.93726 13.5212C10.0941 13.6945 10.2366 13.744 10.6358 13.744C11.4199 13.744 12.0899 13.4469 12.1612 13.088C12.2325 12.7909 11.9331 12.3825 11.5197 12.1968C11.3058 12.0978 10.8639 12.0607 10.6358 12.1225ZM11.5483 12.7412C11.6623 12.5926 11.6195 12.4317 11.4057 12.3203C11.0208 12.1099 10.4363 12.2832 10.4363 12.605C10.4363 12.7659 10.7357 12.9392 11.0208 12.9392C11.2061 12.9392 11.4627 12.8402 11.5483 12.7412Z"
        fill="#FF007A" />
</svg>
    